#!OML:ASF F:\VICON\USERDATA\INSTALL\Justin_Nancy\Justin_Nancy.ASF
:FULLY-SPECIFIED
:DEGREES
502
root 14.7561 17.6555 9.98953 -59.1066 91.2345 -61.4349
lowerback 6.15537 1.54942 -1.27279
upperback -0.26453 2.01225 0.925945
thorax -3.8023 1.03574 1.48162
lowerneck -16.4846 -3.91393 -9.67044
upperneck 23.5052 -3.87044 5.17129
head 10.5774 -1.92231 2.95356
rclavicle -1.75676e-014 -1.27222e-014
rhumerus -31.7704 -8.15746 -81.3607
rradius 34.4393
rwrist -0.39164
rhand -13.6626 9.75699
rfingers 7.12502
rthumb 12.4545 -19.8519
lclavicle -1.75676e-014 -1.27222e-014
lhumerus -33.4691 15.6781 81.7925
lradius 21.7751
lwrist -12.0674
lhand -16.76 24.442
lfingers 7.12502
lthumb 9.46688 54.2093
rfemur -3.71396 1.92549 20.5094
rtibia 49.1124
rfoot 8.49405 0.0901179
rtoes 10.389
lfemur -19.8727 -0.338641 -24.4318
ltibia 20.1952
lfoot -1.36464 -2.19312
ltoes 1.22499
503
root 14.8874 17.6674 9.97317 -78.3754 91.6184 -80.6312
lowerback 6.23661 1.64341 -1.88603
upperback -0.245508 2.08856 0.868544
thorax -3.85146 1.08514 1.75707
lowerneck -16.3492 -4.03112 -9.36697
upperneck 23.3138 -4.03599 4.79306
head 10.4806 -2.01722 2.73938
rclavicle -2.44008e-014 -1.59028e-015
rhumerus -31.6786 -9.79061 -80.6993
rradius 33.7031
rwrist 1.88789
rhand -12.6683 10.5707
rfingers 7.12502
rthumb 13.413 -18.9775
lclavicle -2.44008e-014 -1.59028e-015
lhumerus -33.389 14.7238 82.368
lradius 22.0604
lwrist -12.0696
lhand -17.8679 25.4499
lfingers 7.12502
lthumb 8.39786 55.2629
rfemur -5.30873 1.98418 19.7087
rtibia 51.6765
rfoot 10.6879 0.171176
rtoes 13.9731
lfemur -19.1384 0.830234 -25.2346
ltibia 19.8531
lfoot -1.75198 -3.1309
ltoes 0.509949
504
root 15.0178 17.6797 9.95351 -89.8923 91.9429 -92.1959
lowerback 6.24362 1.67318 -2.1254
upperback -0.304283 2.10147 0.67211
thorax -3.91829 1.09499 1.68584
lowerneck -16.5887 -4.01156 -9.61684
upperneck 23.5596 -4.01369 5.15956
head 10.6282 -1.9846 2.91938
rclavicle -7.7526e-015 -1.03368e-014
rhumerus -31.1905 -15.0248 -79.0847
rradius 31.51
rwrist 8.7824
rhand -10.2088 13.3968
rfingers 7.12502
rthumb 15.7826 -15.9798
lclavicle -7.7526e-015 -1.03368e-014
lhumerus -33.3441 13.8399 82.5147
lradius 22.4288
lwrist -11.6906
lhand -17.0854 25.3023
lfingers 7.12502
lthumb 9.15294 55.0837
rfemur -7.03723 1.79915 19.0359
rtibia 54.1369
rfoot 12.5245 0.695864
rtoes 15.9058
lfemur -18.594 1.56999 -25.7328
ltibia 19.6673
lfoot -2.23952 -3.46978
ltoes -0.0657618
505
root 15.1483 17.69 9.92908 -101.356 91.9801 -103.72
lowerback 6.31296 1.75354 -1.9692
upperback -0.420844 2.21508 0.60669
thorax -4.07487 1.14943 1.51527
lowerneck -16.8008 -3.98176 -10.2643
upperneck 23.8226 -3.94889 5.8442
head 10.7901 -1.93034 3.29181
rclavicle -8.87077e-015 -7.95139e-015
rhumerus -31.8613 -8.11821 -82.375
rradius 34.1843
rwrist -3.62584
rhand -17.4981 5.80538
rfingers 7.12502
rthumb 8.75472 -23.9931
lclavicle -8.87077e-015 -7.95139e-015
lhumerus -33.3095 12.4743 82.9226
lradius 22.7923
lwrist -10.7596
lhand -16.0563 24.5479
lfingers 7.12502
lthumb 10.1458 54.2833
rfemur -8.69438 1.67854 18.7838
rtibia 56.4879
rfoot 13.6528 0.951036
rtoes 17.1617
lfemur -18.0657 2.57898 -25.8658
ltibia 19.4803
lfoot -2.77853 -3.96233
ltoes 0.96038
506
root 15.2755 17.6957 9.90948 -105.114 92.4024 -107.277
lowerback 6.60296 1.85067 -2.24655
upperback -0.402015 2.31125 0.464663
thorax -4.22815 1.20265 1.50529
lowerneck -16.8029 -3.92672 -9.90104
upperneck 23.6958 -3.90964 5.59238
head 10.7254 -1.90967 3.14139
rclavicle -3.15819e-014 -4.77083e-015
rhumerus -32.1378 -9.15066 -81.6817
rradius 33.6318
rwrist 0.320258
rhand -14.4842 8.70782
rfingers 7.12502
rthumb 11.6622 -20.9476
lclavicle -3.15819e-014 -4.77083e-015
lhumerus -33.1329 12.1681 83.0078
lradius 23.0174
lwrist -10.7832
lhand -15.3665 24.0429
lfingers 7.12502
lthumb 10.8113 53.7446
rfemur -10.0278 1.56428 18.1559
rtibia 58.7286
rfoot 13.9112 0.371551
rtoes 18.117
lfemur -17.274 2.94859 -26.3364
ltibia 19.3377
lfoot -3.26308 -4.02533
ltoes 1.93097
507
root 15.4045 17.6942 9.89426 -104.103 92.7744 -106.099
lowerback 6.7335 1.85243 -2.69585
upperback -0.364131 2.27153 0.380546
thorax -4.27521 1.19222 1.67083
lowerneck -16.5327 -3.77695 -8.97687
upperneck 23.3834 -3.77885 4.81036
head 10.5092 -1.86165 2.71711
rclavicle -7.85199e-015 -8.74653e-015
rhumerus -32.0253 -12.0348 -80.3251
rradius 32.3037
rwrist 6.15056
rhand -10.4927 12.8419
rfingers 7.12502
rthumb 15.5091 -16.556
lclavicle -7.85199e-015 -8.74653e-015
lhumerus -32.9807 11.901 83.1265
lradius 23.2543
lwrist -10.6629
lhand -15.6601 23.9296
lfingers 7.12502
lthumb 10.528 53.6459
rfemur -11.3189 1.23538 17.5658
rtibia 60.8418
rfoot 13.3051 -0.402749
rtoes 17.4066
lfemur -16.4383 2.42077 -26.7128
ltibia 19.1221
lfoot -3.51901 -3.36955
ltoes 2.08361
508
root 15.5332 17.6937 9.87837 -103.113 93.1466 -104.95
lowerback 6.80122 1.84222 -3.15771
upperback -0.279057 2.21912 0.351354
thorax -4.23931 1.17504 1.90463
lowerneck -16.391 -3.74203 -8.92525
upperneck 23.2153 -3.72917 4.70426
head 10.4137 -1.84801 2.67571
rclavicle 1.33683e-014 -7.55382e-015
rhumerus -31.6046 -14.4086 -79.742
rradius 31.3421
rwrist 8.23894
rhand -10.4347 13.2487
rfingers 7.12502
rthumb 15.565 -16.1449
lclavicle 1.33683e-014 -7.55382e-015
lhumerus -32.6729 10.4807 83.7173
lradius 23.4809
lwrist -9.38917
lhand -17.3197 24.4572
lfingers 7.12502
lthumb 8.92685 54.2483
rfemur -12.5719 0.966299 17.0197
rtibia 62.8415
rfoot 12.0832 -1.84683
rtoes 16.1179
lfemur -15.5437 2.29339 -27.1361
ltibia 18.7068
lfoot -3.77849 -3.23359
ltoes 2.60308
509
root 15.6573 17.6874 9.86617 -100.176 93.8651 -101.944
lowerback 6.849 1.71212 -4.02454
upperback -0.220828 1.97448 0.322238
thorax -4.22118 1.07164 2.387
lowerneck -16.4898 -3.71392 -9.49971
upperneck 23.155 -3.5864 4.94827
head 10.4179 -1.8051 2.87818
rclavicle 5.64051e-015 1.19271e-015
rhumerus -31.7391 -11.1135 -80.6218
rradius 32.0835
rwrist 5.93709
rhand -11.119 12.109
rfingers 7.12502
rthumb 14.9058 -17.3347
lclavicle 5.64051e-015 1.19271e-015
lhumerus -32.4181 10.1654 83.9815
lradius 23.6528
lwrist -9.09431
lhand -18.4095 25.0798
lfingers 7.12502
lthumb 7.87507 54.9132
rfemur -13.9651 0.498614 16.0642
rtibia 64.7356
rfoot 10.569 -2.88053
rtoes 14.9558
lfemur -14.7667 2.1309 -27.9713
ltibia 18.2682
lfoot -3.95003 -3.07755
ltoes 3.73061
510
root 15.7813 17.6799 9.85784 -97.0559 94.7681 -98.8412
lowerback 6.89451 1.45202 -5.07681
upperback -0.217231 1.54007 0.292728
thorax -4.24055 0.879608 2.99418
lowerneck -16.8752 -3.62869 -10.1389
upperneck 23.3032 -3.28576 5.08056
head 10.5383 -1.70788 3.07587
rclavicle 1.4064e-014 -5.56597e-015
rhumerus -31.5929 -9.61155 -80.9218
rradius 32.0967
rwrist 5.58684
rhand -11.2254 11.8633
rfingers 7.12502
rthumb 14.8033 -17.588
lclavicle 1.4064e-014 -5.56597e-015
lhumerus -32.2964 10.4765 84.0568
lradius 23.9362
lwrist -8.70991
lhand -18.501 25.0938
lfingers 7.12502
lthumb 7.7868 54.9304
rfemur -15.4848 -0.266883 14.9016
rtibia 66.433
rfoot 9.20301 -3.08667
rtoes 13.2044
lfemur -14.1331 1.32308 -28.976
ltibia 17.9771
lfoot -4.01589 -2.36797
ltoes 3.46138
511
root 15.9061 17.6759 9.84004 -95.4537 95.1555 -97.2068
lowerback 6.94072 1.25464 -5.316
upperback -0.209422 1.25266 0.213854
thorax -4.23602 0.74158 3.07729
lowerneck -16.8647 -3.54472 -10.3106
upperneck 23.1611 -3.11344 5.04697
head 10.4729 -1.64825 3.11418
rclavicle 2.48481e-015 -3.57812e-015
rhumerus -31.4655 -9.44504 -80.9526
rradius 31.8424
rwrist 6.18716
rhand -11.3715 12.0728
rfingers 7.12502
rthumb 14.6626 -17.3888
lclavicle 2.48481e-015 -3.57812e-015
lhumerus -32.1385 9.8865 84.1261
lradius 24.2527
lwrist -7.94776
lhand -18.4983 24.9696
lfingers 7.12502
lthumb 7.7894 54.8061
rfemur -16.8718 -0.90666 14.3008
rtibia 67.839
rfoot 7.88432 -3.77131
rtoes 13.0705
lfemur -13.5586 1.11416 -29.498
ltibia 17.8131
lfoot -4.29358 -2.27011
ltoes 1.82908
